<svg viewBox="0 0 64 64" xmlns="http://www.w3.org/2000/svg">
  <defs>
    <linearGradient id="autoGrad" x1="0%" y1="0%" x2="100%" y2="100%">
      <stop offset="0%" stop-color="#7f5cff"/>
      <stop offset="100%" stop-color="#5b9dff"/>
    </linearGradient>
  </defs>

  <!-- Gear -->
  <circle cx="32" cy="24" r="9"
          fill="none"
          stroke="url(#autoGrad)"
          stroke-width="2.4"/>

  <path d="
    M32 11 L32 15
    M32 33 L32 37
    M23 24 L19 24
    M45 24 L41 24
    M25.5 16.5 L22.5 13.5
    M38.5 16.5 L41.5 13.5
    M25.5 31.5 L22.5 34.5
    M38.5 31.5 L41.5 34.5"
    stroke="url(#autoGrad)"
    stroke-width="2.2"
    stroke-linecap="round"/>

  <!-- Bottom nodes and connectors -->
  <circle cx="18" cy="46" r="4"
          fill="none"
          stroke="#f5f7ff"
          stroke-width="2.1"/>
  <circle cx="32" cy="46" r="4"
          fill="none"
          stroke="#f5f7ff"
          stroke-width="2.1"/>
  <circle cx="46" cy="46" r="4"
          fill="none"
          stroke="#f5f7ff"
          stroke-width="2.1"/>

  <line x1="22" y1="46" x2="28" y2="46"
        stroke="#bfaaff"
        stroke-width="2"
        stroke-linecap="round"/>
  <line x1="36" y1="46" x2="42" y2="46"
        stroke="#bfaaff"
        stroke-width="2"
        stroke-linecap="round"/>

  <!-- Link from gear to middle node -->
  <line x1="32" y1="33" x2="32" y2="42"
        stroke="#bfaaff"
        stroke-width="2"
        stroke-linecap="round"/>
</svg>
