<svg width="120" height="120" viewBox="0 0 24 24" fill="#b388ff" xmlns="http://www.w3.org/2000/svg">
  <path d="M12 2c-4.4 0-8 2.91-8 7 0 2.31 1.08 4.12 2.69 5.37-.09.37-.69 2.56-.69 2.63 0 .55.45 1 1 1 .26 0 .5-.1.69-.28l2.19-2.19c.66.14 1.35.22 2.12.22s1.46-.08 2.12-.22l2.19 2.19c.19.18.43.28.69.28.55 0 1-.45 1-1 0-.07-.6-2.26-.69-2.63 1.61-1.25 2.69-3.06 2.69-5.37 0-4.09-3.6-7-8-7zm-4 7c-.55 0-1-.45-1-1s.45-1 1-1 1 .45 1 1-.45 1-1 1zm8 0c-.55 0-1-.45-1-1s.45-1 1-1 1 .45 1 1-.45 1-1 1z"/>
</svg>

