<svg width="100" height="100" viewBox="0 0 24 24" fill="#7f5cff" xmlns="http://www.w3.org/2000/svg">
  <path d="M12 8a4 4 0 110 8 4 4 0 010-8zm8.94 3a7.97 7.97 0 00-.48-2l1.76-1.38-1.5-2.6-2.06.5a8.14 8.14 0 00-1.72-1l-.3-2.1h-3l-.3 2.1a8.14 8.14 0 00-1.72 1l-2.06-.5-1.5 2.6 1.76 1.38a7.97 7.97 0 00-.48 2l-2.1.3v3l2.1.3a7.97 7.97 0 00.48 2L4.94 17l1.5 2.6 2.06-.5a8.14 8.14 0 001.72 1l.3 2.1h3l.3-2.1c.63-.27 1.21-.61 1.72-1l2.06.5 1.5-2.6-1.76-1.38c.21-.63.36-1.31.48-2l2.1-.3v-3l-2.1-.3z"/>
</svg>
